# AST/ASF file generated using VICON BodyLanguage
# -----------------------------------------------
:version 1.10
:name VICON
:units
  mass 1.0
  length 0.45
  angle deg
:documentation
   .ast/.asf automatically generated from VICON data using
   VICON BodyBuilder and BodyLanguage model FoxedUp or BRILLIANT.MOD
:root
   order TX TY TZ RX RY RZ
   axis XYZ
   position 0 0 0  
   orientation 0 0 0 
:bonedata
  begin
     id 1 
     name lhipjoint
     direction 0.702568 -0.596508 0.388042 
     length 2.56661 
     axis 0 0 0  XYZ
  end
  begin
     id 2 
     name lfemur
     direction 0.34202 -0.939693 0  
     length 6.58374  
     axis 0 0 20  XYZ
    dof rx ry rz
    limits (-160.0 20.0)
           (-70.0 70.0)
           (-60.0 70.0)
  end
  begin
     id 3 
     name ltibia
     direction 0.34202 -0.939693 0   
     length 6.62538   
     axis 0 0 20   XYZ
    dof rx
    limits (-10.0 170.0)
  end
  begin
     id 4 
     name lfoot
     direction 0.10455 -0.287249 0.952133   
     length 2.26699   
     axis -90 7.62852e-016 20   XYZ
    dof rx rz
    limits (-45.0 90.0)
           (-70.0 20.0)
  end
  begin
     id 5 
     name ltoes
     direction 1.53572e-011 -4.22322e-011 1   
     length 1.12949   
     axis -90 7.62852e-016 20   XYZ
    dof rx
    limits (-90.0 20.0)
  end
  begin
     id 6 
     name rhipjoint
     direction -0.728055 -0.574632 0.373811   
     length 2.66432  
     axis 0 0 0  XYZ 
  end
  begin
     id 7 
     name rfemur
     direction -0.34202 -0.939693 0   
     length 6.66732   
     axis 0 0 -20   XYZ
    dof rx ry rz
    limits (-160.0 20.0)
           (-70.0 70.0)
           (-70.0 60.0)
  end
  begin
     id 8 
     name rtibia
     direction -0.34202 -0.939693 0   
     length 6.59288   
     axis 0 0 -20   XYZ
    dof rx
    limits (-10.0 170.0)
 end
 begin
     id 9 
     name rfoot
     direction -0.119193 -0.327479 0.93731   
     length 2.38061  
     axis -90 -7.62852e-016 -20   XYZ
    dof rx rz
    limits (-45.0 90.0)
           (-20.0 70.0)
  end
  begin
     id 10 
     name rtoes
     direction -1.53547e-011 -4.21827e-011 1   
     length 1.17899   
     axis -90 -7.62852e-016 -20   XYZ
    dof rx
    limits (-90.0 20.0)
  end
  begin
     id 11 
     name lowerback
     direction -0.000416114 0.999912 -0.0132284   
     length 2.12109   
     axis 0 0 0   XYZ
    dof rx ry rz
    limits (-20.0 45.0)
           (-30.0 30.0)
           (-30.0 30.0)
  end
  begin
     id 12 
     name upperback
     direction -0.00136371 0.99809 0.0617608   
     length 2.10067   
     axis 0 0 0   XYZ
    dof rx ry rz
    limits (-20.0 45.0)
           (-30.0 30.0)
           (-30.0 30.0)
  end
  begin
     id 13 
     name thorax
     direction -3.43026e-005 0.997776 0.0666515   
     length 2.10618   
     axis 0 0 0   XYZ
    dof rx ry rz
    limits (-20.0 45.0)
           (-30.0 30.0)
           (-30.0 30.0)
  end
  begin
     id 14 
     name lowerneck
     direction 0.0398646 0.998418 0.0396592   
     length 1.83817   
     axis 0 0 0   XYZ
    dof rx ry rz
    limits (-20.0 45.0)
           (-30.0 30.0)
           (-30.0 30.0)
  end
  begin
     id 15 
     name upperneck
     direction -0.0367268 0.961527 -0.272244   
     length 1.81975   
     axis 0 0 0   XYZ
    dof rx ry rz
    limits (-20.0 45.0)
           (-30.0 30.0)
           (-30.0 30.0)
  end
  begin
     id 16
     name head
     direction -0.0182665 0.99536 -0.0944669  
     length 1.86026  
     axis 0 0 0   XYZ
    dof rx ry rz
    limits (-20.0 45.0)
           (-30.0 30.0)
           (-30.0 30.0)
  end
  begin
     id 17 
     name lclavicle
     direction 0.924239 0.361045 0.124212  
     length 3.26878  
     axis 0 0 0   XYZ
    dof ry rz
    limits (-20.0 10.0)
           (0.0 20.0)
  end
  begin
     id 18 
     name lhumerus
     direction 1 -4.48968e-011 -2.56583e-027   
     length 4.58538   
     axis 180 -30 -90   XYZ
    dof rx ry rz
    limits (-60.0 90.0)
           (-90.0 90.0)
           (-90.0 90.0)
  end
  begin
     id 19
     name lradius
     direction 1 -4.4898e-011 -5.50375e-027   
     length 2.68935   
     axis 180 -30 -90   XYZ
    dof rx
    limits (-10.0 170.0)
  end
  begin
     id 20
     name lwrist
     direction 1 -4.48939e-011 -1.48955e-026   
     length 1.34468   
     axis 9.0955e-015 90 90   XYZ
    dof ry
    limits (-180.0 0.0)
 end
  begin
     id 21 
     name lhand
     direction 1 -4.48936e-011 -2.97907e-026   
     length 0.585058   
     axis 1.90115e-014 90 90   XYZ
    dof rx rz
    limits (-90.0 90.0)
           (-45.0 45.0)
  end
  begin
     id 22 
     name lfingers
     direction 1 -4.49082e-011 -5.96235e-026   
     length 0.471689   
     axis 3.80223e-014 90 90   XYZ
    dof rx
    limits (0.0 90.0)
  end
  begin
     id 23
     name lthumb
     direction 0.707107 -6.3489e-011 0.707107   
     length 0.677253   
     axis -90 45 -3.84942e-014   XYZ
    dof rx rz
    limits (-45.0 45.0)
           (-45.0 45.0)
  end
  begin
     id 24 
     name rclavicle
     direction -0.923098 0.371783 0.0983239   
     length 3.19656  
     axis 0 0 0   XYZ 
    dof ry rz
    limits (-10.0 20.0)
           (-20.0 0.0)
  end
  begin
     id 25 
     name rhumerus
     direction -1 -4.48976e-011 -2.5492e-027  
     length 4.4745   
     axis 180 30 90   XYZ
    dof rx ry rz
    limits (-90.0 60.0)
           (-90.0 90.0)
           (-90.0 90.0)
  end
  begin
     id 26 
     name rradius
     direction -1 -4.48941e-011 -4.36555e-027   
     length 2.93896   
     axis 180 30 90   XYZ
    dof rx
    limits (-10.0 170.0)
  end
  begin
     id 27 
     name rwrist
     direction -1 -4.49044e-011 -1.49032e-026   
     length 1.46948   
     axis 9.0955e-015 -90 -90   XYZ
    dof ry
    limits (-180.0 0.0)
  end
  begin
     id 28
     name rhand
     direction -1 -4.48826e-011 -2.97749e-026   
     length 0.405092   
     axis 1.90115e-014 -90 -90   XYZ
    dof rx rz
    limits (-90.0 90.0)
           (-45.0 45.0)
  end
  begin
     id 29
     name rfingers
     direction -1 -4.49209e-011 -5.96602e-026   
     length 0.326596   
     axis 3.80223e-014 -90 -90   XYZ
    dof rx
    limits (0.0 90.0)
  end
  begin
     id 30
     name rthumb
     direction -0.707107 -6.34776e-011 0.707107   
     length 0.468928   
     axis -90 -45 3.84942e-014   XYZ
    dof rx rz
    limits (-45.0 45.0)
           (-45.0 45.0)
  end
:hierarchy
  begin
    root lhipjoint rhipjoint lowerback
    lhipjoint lfemur
    lfemur ltibia
    ltibia lfoot
    lfoot ltoes
    rhipjoint rfemur
    rfemur rtibia
    rtibia rfoot
    rfoot rtoes
    lowerback upperback
    upperback thorax
    thorax lowerneck lclavicle rclavicle
    lowerneck upperneck
    upperneck head
    lclavicle lhumerus
    lhumerus lradius
    lradius lwrist
    lwrist lhand lthumb
    lhand lfingers
    rclavicle rhumerus
    rhumerus rradius
    rradius rwrist
    rwrist rhand rthumb
    rhand rfingers
  end

#!OML:ASF H:\Punching\Project 1\Capture day 1\Session 1\female.ASF
:FULLY-SPECIFIED
:DEGREES
212
root -1.90141 15.3911 0.628329 3.72032 -19.5605 3.23495
lowerback -0.0420033 -0.803897 5.25648
upperback -3.70959 -1.04447 -2.0819
thorax -3.95625 -0.741553 -5.08029
lowerneck -6.48102 11.8397 15.0471
upperneck 31.5892 21.2383 -19.5846
head 16.5766 8.98595 -7.29433
rclavicle -5.09386e-016 -8.15017e-015
rhumerus 15.7463 32.5801 -65.6396
rradius 131.885
rwrist -24.8125
rhand -28.1852 5.65456
rfingers 7.12502
rthumb -1.56474 -24.3195
lclavicle -5.09386e-016 -8.15017e-015
lhumerus -11.7656 -19.7451 70.492
lradius 140.996
lwrist -2.4992
lhand -30.9799 3.26331
lfingers 7.12502
lthumb -4.26369 33.2004
rfemur -27.0611 3.065 24.7597
rtibia 40.1815
rfoot -15.3956 -8.11346
rtoes 19.6033
lfemur -72.8043 14.9953 -27.254
ltibia 129.467
lfoot 31.4444 -3.47038
ltoes -5.35797
213
root -1.8957 15.3855 0.580642 4.45802 -18.8157 3.20266
lowerback -0.279921 -0.805741 5.14789
upperback -3.8938 -1.05884 -2.05849
thorax -4.01246 -0.7513 -4.99555
lowerneck -6.8201 11.6922 14.9094
upperneck 31.556 20.9609 -19.4893
head 16.522 8.84215 -7.26626
rclavicle 2.76186e-014 1.0138e-014
rhumerus 15.8416 32.1536 -65.4178
rradius 131.906
rwrist -24.7856
rhand -28.2307 5.68471
rfingers 7.12502
rthumb -1.60877 -24.289
lclavicle 2.76186e-014 1.0138e-014
lhumerus -11.4896 -19.8296 70.3235
lradius 140.952
lwrist -2.40431
lhand -30.923 3.05266
lfingers 7.12502
lthumb -4.2088 32.9908
rfemur -28.172 2.70444 24.7421
rtibia 40.4997
rfoot -15.4289 -8.31987
rtoes 19.6324
lfemur -69.6935 14.5042 -26.649
ltibia 128.014
lfoot 30.8298 -2.78778
ltoes -4.85957
214
root -1.88956 15.3784 0.536273 5.13522 -18.1091 3.18062
lowerback -0.488761 -0.805251 5.05667
upperback -4.07798 -1.06819 -2.04034
thorax -4.08515 -0.759502 -4.92615
lowerneck -7.13134 11.5449 14.7715
upperneck 31.536 20.688 -19.388
head 16.4691 8.70235 -7.23711
rclavicle -6.55244e-014 3.27995e-015
rhumerus 15.8983 31.7611 -65.2441
rradius 131.913
rwrist -24.7639
rhand -28.272 5.71495
rfingers 7.12502
rthumb -1.64864 -24.2584
lclavicle -6.55244e-014 3.27995e-015
lhumerus -11.2802 -19.8589 70.1633
lradius 140.886
lwrist -2.27674
lhand -30.8589 2.66074
lfingers 7.12502
lthumb -4.14686 32.6001
rfemur -29.2191 2.36697 24.7202
rtibia 40.8353
rfoot -15.4826 -8.51765
rtoes 19.647
lfemur -66.475 14.0233 -25.9935
ltibia 126.34
lfoot 30.0633 -1.92426
ltoes -4.36489
215
root -1.88299 15.37 0.49427 5.76075 -17.4291 3.17175
lowerback -0.693403 -0.804663 4.97517
upperback -4.25312 -1.07709 -2.03017
thorax -4.15125 -0.767383 -4.87073
lowerneck -7.41871 11.3974 14.6383
upperneck 31.5233 20.4167 -19.2818
head 16.4159 8.5657 -7.20808
rclavicle 3.55079e-014 -2.28602e-015
rhumerus 15.9396 31.3927 -65.1079
rradius 131.929
rwrist -24.7592
rhand -28.3104 5.74088
rfingers 7.12502
rthumb -1.68574 -24.2322
lclavicle 3.55079e-014 -2.28602e-015
lhumerus -11.1277 -19.9136 70.0147
lradius 140.863
lwrist -2.21113
lhand -30.8067 2.44349
lfingers 7.12502
lthumb -4.09647 32.3839
rfemur -30.2161 2.04793 24.6899
rtibia 41.1897
rfoot -15.5522 -8.7138
rtoes 19.6465
lfemur -63.191 13.5289 -25.309
ltibia 124.445
lfoot 29.1616 -0.912936
ltoes -3.88005
216
root -1.87587 15.3605 0.454689 6.33203 -16.7788 3.17222
lowerback -0.887276 -0.808763 4.89593
upperback -4.41262 -1.09152 -2.01885
thorax -4.20782 -0.777225 -4.8152
lowerneck -7.7048 11.259 14.501
upperneck 31.517 20.1618 -19.1729
head 16.3706 8.43559 -7.17403
rclavicle -3.03644e-014 2.68359e-015
rhumerus 15.9922 31.0495 -64.985
rradius 131.956
rwrist -24.7778
rhand -28.3517 5.79074
rfingers 7.12502
rthumb -1.72554 -24.182
lclavicle -3.03644e-014 2.68359e-015
lhumerus -11.0247 -19.9721 69.881
lradius 140.88
lwrist -2.19971
lhand -30.7638 2.40435
lfingers 7.12502
lthumb -4.05502 32.3455
rfemur -31.1579 1.74424 24.6527
rtibia 41.5641
rfoot -15.6417 -8.89914
rtoes 19.6383
lfemur -59.8452 13.0218 -24.6095
ltibia 122.333
lfoot 28.0972 0.216106
ltoes -3.41337
217
root -1.86813 15.3501 0.41789 6.84312 -16.1626 3.18397
lowerback -1.06061 -0.813712 4.81702
upperback -4.55809 -1.106 -2.00884
thorax -4.2614 -0.786528 -4.7611
lowerneck -7.98766 11.1256 14.3622
upperneck 31.5172 19.9158 -19.0593
head 16.3306 8.3096 -7.13626
rclavicle -2.7833e-014 -7.55382e-015
rhumerus 16.0401 30.7232 -64.8753
rradius 131.989
rwrist -24.8063
rhand -28.3857 5.85003
rfingers 7.12502
rthumb -1.75838 -24.1225
lclavicle -2.7833e-014 -7.55382e-015
lhumerus -10.9535 -19.9911 69.7548
lradius 140.893
lwrist -2.16769
lhand -30.7253 2.29954
lfingers 7.12502
lthumb -4.01784 32.2414
rfemur -32.0394 1.45329 24.6045
rtibia 41.9634
rfoot -15.7566 -9.06673
rtoes 19.6175
lfemur -56.4334 12.5044 -23.9164
ltibia 120.003
lfoot 26.8361 1.43861
ltoes -2.9974
218
root -1.85989 15.3386 0.383412 7.29762 -15.5759 3.20203
lowerback -1.21511 -0.818314 4.73965
upperback -4.68885 -1.11908 -2.00108
thorax -4.31018 -0.794574 -4.71016
lowerneck -8.26583 10.9957 14.225
upperneck 31.5233 19.6741 -18.9366
head 16.2935 8.18663 -7.09434
rclavicle -8.7838e-015 1.81888e-014
rhumerus 16.081 30.407 -64.7792
rradius 132.029
rwrist -24.8259
rhand -28.4146 5.91263
rfingers 7.12502
rthumb -1.78634 -24.0596
lclavicle -8.7838e-015 1.81888e-014
lhumerus -10.8991 -19.9798 69.6348
lradius 140.896
lwrist -2.09869
lhand -30.7018 2.09424
lfingers 7.12502
lthumb -3.99523 32.0365
rfemur -32.8663 1.17444 24.5494
rtibia 42.3944
rfoot -15.8994 -9.21773
rtoes 19.5739
lfemur -52.9774 11.9882 -23.2395
ltibia 117.467
lfoot 25.3645 2.69593
ltoes -2.68077
219
root -1.85147 15.3252 0.349895 7.72038 -14.986 3.22805
lowerback -1.36541 -0.834417 4.65007
upperback -4.81518 -1.14719 -1.98921
thorax -4.358 -0.809288 -4.64757
lowerneck -8.53371 10.8712 14.0918
upperneck 31.5348 19.4413 -18.8101
head 16.2602 8.06896 -7.05037
rclavicle 1.37814e-014 1.61016e-014
rhumerus 16.0995 30.1024 -64.6993
rradius 132.077
rwrist -24.8288
rhand -28.4427 6.00076
rfingers 7.12502
rthumb -1.81349 -23.9713
lclavicle 1.37814e-014 1.61016e-014
lhumerus -10.8675 -19.9478 69.5264
lradius 140.904
lwrist -2.01419
lhand -30.6684 1.93458
lfingers 7.12502
lthumb -3.96289 31.8775
rfemur -33.6768 0.892192 24.4874
rtibia 42.8701
rfoot -16.0705 -9.36439
rtoes 19.5061
lfemur -49.5413 11.4504 -22.596
ltibia 114.746
lfoot 23.7009 3.92371
ltoes -2.56268
220
root -1.84306 15.3095 0.317002 8.11551 -14.3798 3.26692
lowerback -1.51519 -0.863492 4.54003
upperback -4.93677 -1.1926 -1.97555
thorax -4.4024 -0.831427 -4.57115
lowerneck -8.78849 10.7488 13.966
upperneck 31.5423 19.21 -18.6808
head 16.2237 7.95418 -7.00636
rclavicle 4.99509e-014 -1.49089e-015
rhumerus 16.0915 29.8018 -64.6402
rradius 132.126
rwrist -24.7973
rhand -28.4633 6.06249
rfingers 7.12502
rthumb -1.83338 -23.9094
lclavicle 4.99509e-014 -1.49089e-015
lhumerus -10.8446 -19.853 69.4226
lradius 140.887
lwrist -1.84421
lhand -30.6169 1.54052
lfingers 7.12502
lthumb -3.91319 31.4843
rfemur -34.4814 0.596682 24.4151
rtibia 43.3999
rfoot -16.2738 -9.51138
rtoes 19.41
lfemur -46.1422 10.8994 -21.9971
ltibia 111.852
lfoot 21.8784 5.07324
ltoes -2.69485
221
root -1.8349 15.2911 0.283645 8.50115 -13.736 3.32324
lowerback -1.68908 -0.911737 4.39907
upperback -5.05411 -1.26461 -1.95947
thorax -4.43045 -0.864865 -4.47451
lowerneck -9.0249 10.6279 13.8529
upperneck 31.5414 18.9788 -18.5521
head 16.1814 7.84247 -6.96503
rclavicle -2.92555e-014 -2.68359e-015
rhumerus 16.0658 29.5059 -64.599
rradius 132.186
rwrist -24.7287
rhand -28.4838 6.14128
rfingers 7.12502
rthumb -1.85314 -23.8304
lclavicle -2.92555e-014 -2.68359e-015
lhumerus -10.8338 -19.7877 69.3343
lradius 140.912
lwrist -1.71042
lhand -30.5553 1.39328
lfingers 7.12502
lthumb -3.8537 31.3382
rfemur -35.3082 0.281759 24.3289
rtibia 43.9919
rfoot -16.5081 -9.6731
rtoes 19.3048
lfemur -42.8326 10.3384 -21.4486
ltibia 108.804
lfoot 19.953 6.10926
ltoes -3.0553
222
root -1.82701 15.2703 0.250068 8.87482 -13.0527 3.39473
lowerback -1.87542 -0.98041 4.22715
upperback -5.17382 -1.36403 -1.9364
thorax -4.45538 -0.910352 -4.35282
lowerneck -9.23798 10.5078 13.7425
upperneck 31.5395 18.7479 -18.4164
head 16.1333 7.7335 -6.92178
rclavicle -5.48521e-015 -3.77691e-015
rhumerus 16.0255 29.2249 -64.5765
rradius 132.241
rwrist -24.6202
rhand -28.4997 6.19955
rfingers 7.12502
rthumb -1.86853 -23.772
lclavicle -5.48521e-015 -3.77691e-015
lhumerus -10.8583 -19.7515 69.2738
lradius 140.974
lwrist -1.63406
lhand -30.4828 1.47841
lfingers 7.12502
lthumb -3.7837 31.4246
rfemur -36.1499 -0.0668132 24.2345
rtibia 44.6417
rfoot -16.7707 -9.84311
rtoes 19.1942
lfemur -39.6073 9.78436 -20.9426
ltibia 105.611
lfoot 17.9674 7.04903
ltoes -3.58939
223
root -1.81932 15.2472 0.215755 9.24624 -12.3215 3.47696
lowerback -2.07949 -1.07179 4.02676
upperback -5.29509 -1.49375 -1.90383
thorax -4.47318 -0.969218 -4.20511
lowerneck -9.4342 10.3881 13.6344
upperneck 31.5359 18.5157 -18.2733
head 16.0801 7.62623 -6.87633
rclavicle 4.14963e-014 3.30976e-014
rhumerus 15.9848 28.9604 -64.5659
rradius 132.294
rwrist -24.4807
rhand -28.5134 6.23245
rfingers 7.12502
rthumb -1.88175 -23.739
lclavicle 4.14963e-014 3.30976e-014
lhumerus -10.9033 -19.758 69.2409
lradius 141.085
lwrist -1.65408
lhand -30.4029 1.87679
lfingers 7.12502
lthumb -3.70653 31.8243
rfemur -37.013 -0.458717 24.1385
rtibia 45.3384
rfoot -17.0539 -10.0218
rtoes 19.0861
lfemur -36.4921 9.25405 -20.467
ltibia 102.291
lfoot 15.9612 7.92736
ltoes -4.20832
